# xmcd
#
# Track frame offsets:
#	150
#	15934
#	32208
#	49874
#	64372
#	79664
#	93523
#	107325
#	123209
#	137145
#	152092
#	166123
#	179425
#	194551
#	210327
#	222726
#	237178
#	248888
#	263561
#	278780
#	298644
#	312941
#
# Disc length: 4399 seconds
#
# Revision: 0
# Processed by: cddbd v1.5.2PL0 Copyright (c) Steve Scherf et al.
# Submitted via: dBpowerAMP V4.0
#
DISCID=38112d16
DTITLE=Pepe Aguilar - Grandes Exitos
DYEAR=2003
DGENRE=Ranchera
TTITLE0=Intro Mix
TTITLE1=Me Vas A Extrañar
TTITLE2=Por Mujeres Como Tú
TTITLE3=Recuérdame Bonito
TTITLE4=Enamorarse Así
TTITLE5=Directo Al Corazón
TTITLE6=Estás Fallando
TTITLE7=Botellita De Tequila
TTITLE8=Cuidado
TTITLE9=Me Estás LLorando El Corazón
TTITLE10=Almohada
TTITLE11=Salado
TTITLE12=Perdóname
TTITLE13=Después De Tanto
TTITLE14=Por Una Mujer Bonita
TTITLE15=Llamarada
TTITLE16=Te Dejo El Pañuelo
TTITLE17=Quién Entiende A Las Mujeres
TTITLE18=Que Sepan Todos
TTITLE19=Amar Y Querer
TTITLE20=No Sé Si Pa' Bien O Pa' Mal
TTITLE21=Esa Mujer
EXTD=
EXTT0=
EXTT1=
EXTT2=
EXTT3=
EXTT4=
EXTT5=
EXTT6=
EXTT7=
EXTT8=
EXTT9=
EXTT10=
EXTT11=
EXTT12=
EXTT13=
EXTT14=
EXTT15=
EXTT16=
EXTT17=
EXTT18=
EXTT19=
EXTT20=
EXTT21=
PLAYORDER=
